<svg width="140" height="52" viewBox="0 0 140 52" fill="none" xmlns="http://www.w3.org/2000/svg">
<path d="M67.9235 19.3701V20.2234C67.9235 22.6412 67.184 24.1771 65.5342 24.9735C67.5253 25.7415 68.2933 27.5335 68.2933 30.0081V31.9138C68.2933 35.5546 66.3875 37.4888 62.6898 37.4888H56.8873V13.9658H62.4623C66.2738 13.9658 67.9235 15.7293 67.9235 19.3701ZM60.5566 17.3222V23.5513H62.0072C63.3725 23.5513 64.2258 22.954 64.2258 21.0483V19.7399C64.2258 18.0617 63.6569 17.3222 62.3485 17.3222H60.5566ZM60.5566 26.9077V34.1324H62.6614C63.9129 34.1324 64.5671 33.5635 64.5671 31.8285V29.7805C64.5671 27.5904 63.856 26.9362 62.1779 26.9362H60.5566V26.9077Z" fill="#353E50"/>
<path d="M74.2098 13.9658H70.5121V37.4888H74.2098V13.9658Z" fill="#353E50"/>
<path d="M87.1517 13.9658V17.2653L80.1261 34.1324H87.1517V37.4888H76.3431V34.1893L83.3687 17.3222H76.6844V13.9658H87.1517Z" fill="#353E50"/>
<path d="M99.5816 13.9658V17.2653L92.556 34.1324H99.5816V37.4888H88.7729V34.1893L95.7986 17.3222H89.1143V13.9658H99.5816Z" fill="#353E50"/>
<path d="M113.746 37.4888H110.02L109.395 33.2222H104.844L104.189 37.4888H100.805L104.559 13.9658H109.963L113.746 37.4888ZM105.299 30.0365H108.854L107.062 18.147L105.299 30.0365Z" fill="#353E50"/>
<path d="M126.518 19.3701V20.2234C126.518 22.6412 125.778 24.1771 124.128 24.9735C126.119 25.7415 126.887 27.5335 126.887 30.0081V31.9138C126.887 35.5546 124.982 37.4888 121.284 37.4888H115.481V13.9658H121.056C124.868 13.9658 126.518 15.7293 126.518 19.3701ZM119.151 17.3222V23.5513H120.601C121.967 23.5513 122.82 22.954 122.82 21.0483V19.7399C122.82 18.0617 122.251 17.3222 120.943 17.3222H119.151ZM119.151 26.9077V34.1324H121.256C122.507 34.1324 123.161 33.5635 123.161 31.8285V29.7805C123.161 27.5904 122.45 26.9362 120.772 26.9362H119.151V26.9077Z" fill="#353E50"/>
<path d="M128.793 19.5977C128.793 15.8431 130.784 13.6814 134.396 13.6814C138.037 13.6814 140 15.8431 140 19.5977V31.8285C140 35.5831 138.009 37.7448 134.396 37.7448C130.756 37.7448 128.793 35.5831 128.793 31.8285V19.5977ZM132.491 32.0845C132.491 33.7627 133.23 34.4169 134.396 34.4169C135.563 34.4169 136.302 33.7911 136.302 32.0845V19.3701C136.302 17.692 135.563 17.0378 134.396 17.0378C133.23 17.0378 132.491 17.6635 132.491 19.3701V32.0845Z" fill="#353E50"/>
<path fill-rule="evenodd" clip-rule="evenodd" d="M25.7273 51.4547C11.5185 51.4547 0 39.9362 0 25.7273C0 11.5185 11.5185 0 25.7273 0C39.9362 0 51.4547 11.5185 51.4547 25.7273C51.4547 39.9362 39.9362 51.4547 25.7273 51.4547ZM13.0543 15.4165C13.0543 14.4778 13.8223 13.7099 14.761 13.7099H36.7195C37.3453 13.7099 37.9426 14.0512 38.227 14.6201C38.5115 15.1889 38.483 15.8431 38.1417 16.3836L29.1535 30.0366C28.8122 30.5485 28.2717 30.8045 27.7313 30.8045C27.4184 30.8045 27.0771 30.7192 26.7927 30.5201C25.9962 30.0081 25.7687 28.9272 26.3091 28.1308L33.5338 17.1516H14.761C13.8223 17.1231 13.0543 16.3551 13.0543 15.4165ZM13.2548 36.863C12.9419 36.2942 12.9988 35.6399 13.3402 35.0995L22.3284 21.4465C22.8404 20.6501 23.9212 20.4226 24.7176 20.963C25.5141 21.475 25.7416 22.5558 25.2012 23.3523L17.9765 34.3315H36.7493C37.688 34.3315 38.456 35.0995 38.456 36.0382C38.456 36.9768 37.688 37.7448 36.7493 37.7448H14.7908C14.1366 37.7448 13.5393 37.4035 13.2548 36.863Z" fill="url(#paint0_linear)"/>
<defs>
<linearGradient id="paint0_linear" x1="0.0119179" y1="25.725" x2="51.4732" y2="25.725" gradientUnits="userSpaceOnUse">
<stop stop-color="#49C1C7"/>
<stop offset="1" stop-color="#3398CB"/>
</linearGradient>
</defs>
</svg>
